<svg width="30px" height="30px" xmlns="http://www.w3.org/2000/svg" viewBox="0 0 2766.55 3001"><defs><style>.cls-1{fill:#9fa3a7;}</style></defs><title>cart</title><g id="Слой_2" data-name="Слой 2"><g id="Capa_1" data-name="Capa 1"><path class="cls-1" d="M2649.32,486.49H1940.1V351.68C1940.1,157.76,1782.34,0,1588.42,0H1178.13C984.21,0,826.45,157.76,826.45,351.68V486.49H117.23a117.23,117.23,0,0,0,0,234.45h121.4L381.49,2573c0,.54.09,1.08.13,1.63a468.9,468.9,0,0,0,467,426.32H1918c244.22,0,445-181.89,467-423.09a117.23,117.23,0,1,0-233.49-21.29c-10.91,119.68-111.28,209.93-233.48,209.93H848.59c-121.78,0-222-91.27-233.42-212.43L473.78,720.94h1819L2192.65,2019a117.23,117.23,0,0,0,107.87,125.9c3.07.23,6.11.35,9.14.35A117.24,117.24,0,0,0,2426.41,2037L2527.92,720.94h121.4a117.23,117.23,0,0,0,0-234.45Zm-943.67,0H1060.9V351.68a117.36,117.36,0,0,1,117.23-117.23h410.29a117.36,117.36,0,0,1,117.23,117.23Z"/><path class="cls-1" d="M850.64,955.51a117.22,117.22,0,0,0-112,122.23l58.61,1341.85a117.23,117.23,0,0,0,117,112.12c1.72,0,3.46,0,5.2-.12a117.22,117.22,0,0,0,112-122.23L972.87,1067.5C970,1002.83,915.22,952.6,850.64,955.51Z"/><path class="cls-1" d="M1793.68,1067.51l-58.61,1341.86a117.23,117.23,0,0,0,112,122.23q2.61.11,5.2.12a117.24,117.24,0,0,0,117-112.12l58.61-1341.85a117.23,117.23,0,0,0-234.23-10.24Z"/><path class="cls-1" d="M1266,1072.62V2414.47a117.23,117.23,0,1,0,234.45,0V1072.62a117.23,117.23,0,1,0-234.45,0Z"/></g></g></svg>