<svg width="17px" height="17px" xmlns="http://www.w3.org/2000/svg" viewBox="0 0 3001 2291.78"><defs><style>.cls-1{fill:#fff;}</style></defs><title>envelope</title><g id="Слой_2" data-name="Слой 2"><g id="Capa_1" data-name="Capa 1"><path class="cls-1" d="M2883.77,1354A117.22,117.22,0,0,0,3001,1236.74V468.91C3001,210.35,2790.65,0,2532.09,0H468.91C210.35,0,0,210.35,0,468.91v1354c0,258.55,210.35,468.91,468.91,468.91H2532.09c258.55,0,468.91-210.35,468.91-468.91a117.23,117.23,0,1,0-234.45,0c0,129.28-105.18,234.45-234.45,234.45H468.91c-129.28,0-234.45-105.18-234.45-234.45V493.75L1252.89,1127c76.37,47.48,162,71.23,247.61,71.23s171.24-23.74,247.61-71.23L2766.55,493.75v743A117.22,117.22,0,0,0,2883.77,1354Zm-1259.47-426c-76.36,47.48-171.24,47.49-247.61,0L332.27,278.48a233.18,233.18,0,0,1,136.63-44H2532.09a233.19,233.19,0,0,1,136.63,44Z"/></g></g></svg>